<svg width="366" height="199" viewBox="0 0 366 199" fill="none" xmlns="http://www.w3.org/2000/svg">
<line y1="98.5039" x2="366" y2="98.5039" stroke="#143DA7" stroke-opacity="0.4"/>
<line y1="78.707" x2="366" y2="78.707" stroke="#143DA7" stroke-opacity="0.4"/>
<line y1="177.711" x2="366" y2="177.711" stroke="#143DA7" stroke-opacity="0.4"/>
<line y1="58.9023" x2="366" y2="58.9023" stroke="#143DA7" stroke-opacity="0.4"/>
<line y1="157.91" x2="366" y2="157.91" stroke="#143DA7" stroke-opacity="0.4"/>
<line y1="39.1016" x2="366" y2="39.1016" stroke="#143DA7" stroke-opacity="0.4"/>
<line y1="138.105" x2="366" y2="138.105" stroke="#143DA7" stroke-opacity="0.4"/>
<line y1="19.3008" x2="366" y2="19.3008" stroke="#143DA7" stroke-opacity="0.4"/>
<line y1="118.305" x2="366" y2="118.305" stroke="#143DA7" stroke-opacity="0.4"/>
<line x1="183.414" y1="199" x2="183.414" stroke="#143DA7" stroke-opacity="0.4"/>
<line x1="146.996" y1="199" x2="146.996" stroke="#143DA7" stroke-opacity="0.4"/>
<line x1="329.086" y1="199" x2="329.086" stroke="#143DA7" stroke-opacity="0.4"/>
<line x1="110.578" y1="199" x2="110.578" stroke="#143DA7" stroke-opacity="0.4"/>
<line x1="292.668" y1="199" x2="292.668" stroke="#143DA7" stroke-opacity="0.4"/>
<line x1="74.1562" y1="199" x2="74.1562" stroke="#143DA7" stroke-opacity="0.4"/>
<line x1="256.246" y1="199" x2="256.246" stroke="#143DA7" stroke-opacity="0.4"/>
<line x1="37.7422" y1="199" x2="37.7422" stroke="#143DA7" stroke-opacity="0.4"/>
<line x1="219.832" y1="199" x2="219.832" stroke="#143DA7" stroke-opacity="0.4"/>
<g filter="url(#filter0_f_2_122)">
<path fill-rule="evenodd" clip-rule="evenodd" d="M145.342 55.7791L145.984 59.3217L159.483 133.798L165.515 99.3276L165.66 98.5H166.5H180.5V100.5H167.34L160.485 139.672L158.516 139.678L144.658 63.2209L129.435 103.355L128.886 104.801L127.793 103.707L125.067 100.981L120.768 106.14L119.685 107.44L119.069 105.864L115.234 96.0654L112.309 100.088L112.009 100.5H111.5H93.244L81.4578 139.787L79.5077 139.624L70.0418 63.8964L56.4454 103.326L55.8765 104.976L54.7407 103.651L52.5998 101.153L49.3321 106.055L48.159 107.814L47.5433 105.791L44.5884 96.0822L41.274 100.133L40.9739 100.5H40.5H20.5V98.5H40.0261L44.226 93.3668L45.4116 91.9178L45.9567 93.7088L48.841 103.186L51.6679 98.9453L52.4002 97.847L53.2593 98.8492L55.1235 101.024L69.5546 59.174L71.4923 59.376L80.9043 134.672L91.5422 99.2126L91.756 98.5H92.5H110.991L114.691 93.4118L115.766 91.9346L116.431 93.6356L120.315 103.56L124.232 98.8598L124.933 98.0186L125.707 98.7929L128.114 101.199L144.065 59.1453L145.342 55.7791Z" fill="#0FCB22"/>
</g>
<g filter="url(#filter1_f_2_122)">
<path fill-rule="evenodd" clip-rule="evenodd" d="M292.842 55.7791L293.484 59.3217L306.983 133.798L313.015 99.3276L313.16 98.5H314H328V100.5H314.84L307.985 139.672L306.016 139.678L292.158 63.2209L276.935 103.355L276.386 104.801L275.293 103.707L272.567 100.981L268.268 106.14L267.185 107.44L266.569 105.864L262.734 96.0654L259.809 100.088L259.509 100.5H259H240.744L228.958 139.787L227.008 139.624L217.542 63.8964L203.945 103.326L203.376 104.976L202.241 103.651L200.1 101.153L196.832 106.055L195.659 107.814L195.043 105.791L192.088 96.0822L188.774 100.133L188.474 100.5H188H168V98.5H187.526L191.726 93.3668L192.912 91.9178L193.457 93.7088L196.341 103.186L199.168 98.9453L199.9 97.847L200.759 98.8492L202.624 101.024L217.055 59.174L218.992 59.376L228.404 134.672L239.042 99.2126L239.256 98.5H240H258.491L262.191 93.4118L263.266 91.9346L263.931 93.6356L267.815 103.56L271.732 98.8598L272.433 98.0186L273.207 98.7929L275.614 101.199L291.565 59.1453L292.842 55.7791Z" fill="#0FCB22"/>
</g>
<path fill-rule="evenodd" clip-rule="evenodd" d="M145.342 55.7791L145.984 59.3217L159.483 133.798L165.515 99.3276L165.66 98.5H166.5H180.5V100.5H167.34L160.485 139.672L158.516 139.678L144.658 63.2209L129.435 103.355L128.886 104.801L127.793 103.707L125.067 100.981L120.768 106.14L119.685 107.44L119.069 105.864L115.234 96.0654L112.309 100.088L112.009 100.5H111.5H93.244L81.4578 139.787L79.5077 139.624L70.0418 63.8964L56.4454 103.326L55.8765 104.976L54.7407 103.651L52.5998 101.153L49.3321 106.055L48.159 107.814L47.5433 105.791L44.5884 96.0822L41.274 100.133L40.9739 100.5H40.5H20.5V98.5H40.0261L44.226 93.3668L45.4116 91.9178L45.9567 93.7088L48.841 103.186L51.6679 98.9453L52.4002 97.847L53.2593 98.8492L55.1235 101.024L69.5546 59.174L71.4923 59.376L80.9043 134.672L91.5422 99.2126L91.756 98.5H92.5H110.991L114.691 93.4118L115.766 91.9346L116.431 93.6356L120.315 103.56L124.232 98.8598L124.933 98.0186L125.707 98.7929L128.114 101.199L144.065 59.1453L145.342 55.7791Z" fill="#0FCB22"/>
<path fill-rule="evenodd" clip-rule="evenodd" d="M293.484 59.3217L292.842 55.7791L291.565 59.1453L275.614 101.199L273.207 98.7929L272.433 98.0186L271.732 98.8598L267.815 103.56L263.931 93.6356L263.266 91.9346L262.191 93.4118L258.491 98.5H240H239.256L239.042 99.2127L228.404 134.672L218.992 59.376L217.055 59.174L202.624 101.024L200.759 98.8492L199.9 97.847L199.168 98.9453L196.341 103.186L193.457 93.7088L192.912 91.9178L191.726 93.3668L187.526 98.5H168V100.5H188H188.474L188.774 100.133L192.088 96.0822L195.043 105.791L195.659 107.814L196.832 106.055L200.1 101.153L202.241 103.651L203.376 104.976L203.945 103.326L217.542 63.8964L227.008 139.624L228.958 139.787L240.744 100.5H259H259.509L259.809 100.088L262.734 96.0654L266.569 105.864L267.185 107.44L268.268 106.14L272.567 100.981L275.293 103.707L276.386 104.801L276.935 103.355L292.158 63.2209L306.016 139.678L307.985 139.672L314.84 100.5H324.901C325.42 101.397 326.39 102 327.5 102C329.157 102 330.5 100.657 330.5 99C330.5 97.3431 329.157 96 327.5 96C326.014 96 324.78 97.0811 324.541 98.5H314H313.16L313.015 99.3276L306.983 133.798L293.484 59.3217Z" fill="#0FCB22"/>
<defs>
<filter id="filter0_f_2_122" x="18.5" y="53.7791" width="164" height="88.0083" filterUnits="userSpaceOnUse" color-interpolation-filters="sRGB">
<feFlood flood-opacity="0" result="BackgroundImageFix"/>
<feBlend mode="normal" in="SourceGraphic" in2="BackgroundImageFix" result="shape"/>
<feGaussianBlur stdDeviation="1" result="effect1_foregroundBlur_2_122"/>
</filter>
<filter id="filter1_f_2_122" x="166" y="53.7791" width="164" height="88.0083" filterUnits="userSpaceOnUse" color-interpolation-filters="sRGB">
<feFlood flood-opacity="0" result="BackgroundImageFix"/>
<feBlend mode="normal" in="SourceGraphic" in2="BackgroundImageFix" result="shape"/>
<feGaussianBlur stdDeviation="1" result="effect1_foregroundBlur_2_122"/>
</filter>
</defs>
</svg>
