<svg width="40" height="40" viewBox="0 0 40 40" fill="none" xmlns="http://www.w3.org/2000/svg">
<g filter="url(#filter0_f_2_99)">
<path d="M16.0452 28.4638L17.7285 27.5774L14.9638 26.1406L14.8551 26.1982L14.8548 26.1984C14.1281 26.581 13.5738 27.2254 13.3044 28.0011C13.035 28.7769 13.0702 29.6261 13.4033 30.3767C13.7363 31.1276 14.3419 31.7238 15.0979 32.0446C15.2557 32.112 15.4256 32.1468 15.5972 32.147H15.6548C16.0448 32.1305 16.4061 31.937 16.6356 31.6211C16.8653 31.3053 16.9383 30.9022 16.8341 30.5258C16.7296 30.1497 16.4591 29.8417 16.0995 29.6894C15.8598 29.5865 15.7002 29.3551 15.6892 29.0944C15.6783 28.8336 15.818 28.5897 16.0484 28.4671L16.0452 28.4638Z" fill="#143DA7" fill-opacity="0.5"/>
<path d="M26.9315 20.6684C26.9103 20.055 26.7132 19.4608 26.3637 18.9566C26.0141 18.4521 25.527 18.0588 24.9603 17.8235C24.8025 17.761 24.634 17.7307 24.4643 17.734H24.4067C24.017 17.7514 23.6563 17.9456 23.4272 18.2615C23.1984 18.5773 23.1259 18.9804 23.2306 19.3561C23.3353 19.732 23.6058 20.0396 23.965 20.1916C24.2049 20.2945 24.3645 20.5257 24.3755 20.7867C24.3864 21.0474 24.2467 21.2914 24.0163 21.4139L20.0291 23.4941L16.0451 21.4012C15.8146 21.2787 15.675 21.0347 15.6858 20.7738C15.6967 20.5131 15.8563 20.2816 16.0963 20.1789C16.4465 20.0213 16.7074 19.7148 16.8072 19.3439C16.9069 18.9731 16.8348 18.5769 16.611 18.2651C16.3869 17.953 16.0346 17.7582 15.6514 17.734H15.5938C15.4223 17.7343 15.2525 17.7691 15.0947 17.8365C14.3387 18.1573 13.7328 18.7535 13.3998 19.5042C13.067 20.2551 13.0315 21.1042 13.3012 21.8801C13.5706 22.6557 14.1248 23.3002 14.8514 23.6827L18.9409 25.8076L24.0096 28.4763L24.0098 28.4765C24.2402 28.5991 24.3799 28.843 24.369 29.1038C24.358 29.3645 24.1984 29.596 23.9587 29.6989C23.6147 29.8603 23.3602 30.1661 23.2641 30.5334C23.1679 30.9009 23.2397 31.2921 23.4605 31.6013C23.6813 31.9105 24.0279 32.1058 24.4067 32.1341H24.4643C24.6357 32.1337 24.8056 32.0989 24.9634 32.0317C25.7194 31.7107 26.3252 31.1145 26.6583 30.3638C26.9911 29.6131 27.0266 28.7638 26.7569 27.9881C26.4875 27.2122 25.9333 26.5678 25.2067 26.1852L22.7971 24.9053L25.1203 23.6893L25.2098 23.6413C25.7498 23.3607 26.1984 22.9321 26.5034 22.4056C26.8083 21.879 26.9567 21.2763 26.9315 20.6685L26.9315 20.6684Z" fill="#143DA7" fill-opacity="0.5"/>
<path d="M24.5092 5.74686C24.9519 6.68412 25.0878 7.73681 24.8983 8.75578C24.7088 9.77475 24.2032 10.7082 23.4534 11.4237V15.7342C23.73 15.6449 24.0173 15.5922 24.3077 15.5773H24.4612C24.9211 15.5768 25.376 15.6692 25.7989 15.8493C26.4639 16.1313 27.0655 16.5437 27.5686 17.0621C28.2626 17.0159 28.9132 16.7074 29.3887 16.1996C29.8639 15.6915 30.1284 15.0219 30.1284 14.3261V13.1645H30.1445C30.8726 13.1645 31.5711 12.8753 32.086 12.3603C32.6008 11.8456 32.89 11.1472 32.89 10.419V9.26055H32.9061C33.6342 9.26055 34.3327 8.97127 34.8477 8.45632C35.3624 7.94159 35.6517 7.24318 35.6517 6.51501V5.03021H27.8054C26.6681 5.03021 25.544 5.27463 24.5094 5.74695L24.5092 5.74686Z" fill="#143DA7" fill-opacity="0.5"/>
<path d="M7.14582 9.26052H7.16501V10.419C7.16501 11.1471 7.4543 11.8455 7.96924 12.3603C8.4842 12.8752 9.18239 13.1645 9.91079 13.1645H9.92686V14.323H9.92663C9.92686 15.0185 10.1914 15.6882 10.6666 16.1962C11.1418 16.7042 11.7925 17.0127 12.4867 17.0589C12.9586 16.573 13.5177 16.1799 14.1347 15.9005C14.4394 15.7587 14.7626 15.6607 15.0948 15.6094C15.3066 15.5788 15.5209 15.5681 15.7347 15.5772C16.0249 15.5913 16.3121 15.6429 16.5892 15.7308V11.4237C15.8418 10.7065 15.3394 9.77213 15.1525 8.75316C14.9659 7.73441 15.1048 6.68264 15.5492 5.74693C14.5146 5.2746 13.3905 5.03018 12.2532 5.03018H4.40002V6.51498C4.40002 7.2431 4.68931 7.94156 5.20425 8.4563C5.71899 8.97125 6.4174 9.26053 7.14557 9.26053L7.14582 9.26052Z" fill="#143DA7" fill-opacity="0.5"/>
<path d="M20.4355 21.2541C20.6195 21.3494 20.8395 21.3429 21.0175 21.2367C21.1954 21.1304 21.3056 20.9398 21.309 20.7327V10.3424C21.7708 10.1067 22.1585 9.748 22.4291 9.30577C22.6997 8.86354 22.8425 8.35509 22.8418 7.8368C22.8336 7.10937 22.5465 6.41269 22.0398 5.89057C21.5331 5.36848 20.8457 5.06046 20.1186 5.03029C19.2602 5.00105 18.4356 5.36622 17.8802 6.0216C17.3246 6.67674 17.0997 7.55017 17.2689 8.39211C17.4383 9.23429 17.9836 9.95263 18.7492 10.3423V20.3903L20.4355 21.2541Z" fill="#143DA7" fill-opacity="0.5"/>
<path d="M21.3092 33.6381V29.4781L18.7492 28.1372L18.7494 33.6381C18.7494 34.0953 18.9934 34.518 19.3894 34.7466C19.7853 34.9751 20.2733 34.9751 20.6692 34.7466C21.0652 34.518 21.3092 34.0953 21.3092 33.6381H21.3092Z" fill="#143DA7" fill-opacity="0.5"/>
</g>
<path d="M16.0456 28.4625L17.7289 27.5761L14.9641 26.1393L14.8554 26.1968L14.8552 26.1971C14.1284 26.5797 13.5742 27.2241 13.3048 27.9997C13.0353 28.7756 13.0706 29.6248 13.4036 30.3754C13.7367 31.1263 14.3423 31.7225 15.0983 32.0433C15.2561 32.1107 15.4259 32.1455 15.5976 32.1457H15.6552C16.0451 32.1292 16.4065 31.9357 16.636 31.6198C16.8657 31.304 16.9387 30.9009 16.8344 30.5245C16.73 30.1484 16.4594 29.8404 16.0998 29.6881C15.8601 29.5852 15.7005 29.3538 15.6896 29.093C15.6786 28.8323 15.8184 28.5884 16.0487 28.4658L16.0456 28.4625Z" fill="#143DA7"/>
<path d="M26.9319 20.6671C26.9107 20.0537 26.7136 19.4595 26.364 18.9552C26.0145 18.4508 25.5274 18.0575 24.9607 17.8222C24.8028 17.7597 24.6343 17.7294 24.4647 17.7327H24.4071C24.0174 17.7501 23.6566 17.9443 23.4276 18.2602C23.1988 18.576 23.1263 18.9791 23.231 19.3548C23.3356 19.7307 23.6062 20.0383 23.9654 20.1903C24.2053 20.2932 24.3649 20.5244 24.3758 20.7854C24.3868 21.0461 24.247 21.2901 24.0167 21.4126L20.0294 23.4927L16.0455 21.3999C15.8149 21.2773 15.6754 21.0334 15.6861 20.7725C15.6971 20.5117 15.8567 20.2803 16.0966 20.1776C16.4468 20.02 16.7078 19.7135 16.8075 19.3426C16.9073 18.9718 16.8352 18.5756 16.6113 18.2638C16.3872 17.9517 16.035 17.7568 15.6517 17.7327H15.5941C15.4227 17.733 15.2528 17.7678 15.095 17.8352C14.339 18.1559 13.7332 18.7522 13.4002 19.5028C13.0674 20.2538 13.0319 21.1029 13.3015 21.8787C13.5709 22.6544 14.1252 23.2989 14.8517 23.6814L18.9412 25.8062L24.01 28.475L24.0102 28.4752C24.2405 28.5978 24.3803 28.8417 24.3693 29.1025C24.3584 29.3632 24.1988 29.5947 23.9591 29.6976C23.6151 29.8589 23.3606 30.1648 23.2644 30.5321C23.1682 30.8995 23.2401 31.2908 23.4609 31.6C23.6816 31.9092 24.0283 32.1045 24.4071 32.1328H24.4647C24.6361 32.1324 24.806 32.0976 24.9638 32.0304C25.7198 31.7094 26.3256 31.1132 26.6586 30.3625C26.9914 29.6118 27.0269 28.7625 26.7573 27.9868C26.4879 27.2109 25.9336 26.5665 25.2071 26.1839L22.7975 24.904L25.1207 23.688L25.2102 23.64C25.7501 23.3594 26.1988 22.9308 26.5037 22.4042C26.8086 21.8777 26.9571 21.275 26.9318 20.6672L26.9319 20.6671Z" fill="#143DA7"/>
<path d="M24.5096 5.74555C24.9522 6.68281 25.0882 7.73549 24.8987 8.75446C24.7091 9.77343 24.2036 10.7069 23.4538 11.4223V15.7329C23.7304 15.6436 24.0176 15.5909 24.308 15.5759H24.4616C24.9214 15.5755 25.3763 15.6679 25.7993 15.848C26.4643 16.13 27.0658 16.5424 27.569 17.0608C28.263 17.0146 28.9136 16.7061 29.3891 16.1983C29.8643 15.6902 30.1288 15.0206 30.1288 14.3248V13.1632H30.1449C30.873 13.1632 31.5714 12.874 32.0864 12.359C32.6011 11.8443 32.8904 11.1459 32.8904 10.4177V9.25924H32.9065C33.6346 9.25924 34.333 8.96995 34.848 8.45501C35.3628 7.94028 35.652 7.24187 35.652 6.5137V5.0289H27.8057C26.6685 5.0289 25.5444 5.27332 24.5097 5.74564L24.5096 5.74555Z" fill="#143DA7"/>
<path d="M7.14618 9.2592H7.16538V10.4177C7.16538 11.1458 7.45466 11.8442 7.96961 12.359C8.48456 12.8739 9.18275 13.1632 9.91115 13.1632H9.92722V14.3217H9.927C9.92722 15.0172 10.1917 15.6869 10.6669 16.1949C11.1422 16.7029 11.7928 17.0114 12.4871 17.0576C12.9589 16.5717 13.5181 16.1786 14.1351 15.8992C14.4397 15.7574 14.7629 15.6594 15.0951 15.6081C15.3069 15.5775 15.5212 15.5668 15.7351 15.5759C16.0252 15.59 16.3125 15.6416 16.5895 15.7295V11.4224C15.8422 10.7052 15.3397 9.77082 15.1529 8.75184C14.9663 7.7331 15.1051 6.68133 15.5495 5.74561C14.515 5.27329 13.3909 5.02887 12.2535 5.02887H4.40039V6.51367C4.40039 7.24179 4.68968 7.94024 5.20462 8.45499C5.71935 8.96994 6.41776 9.25922 7.14594 9.25922L7.14618 9.2592Z" fill="#143DA7"/>
<path d="M20.4359 21.2528C20.6198 21.3481 20.8399 21.3416 21.0178 21.2354C21.1958 21.1291 21.306 20.9385 21.3094 20.7314V10.3411C21.7712 10.1054 22.1589 9.74669 22.4295 9.30446C22.7 8.86223 22.8429 8.35377 22.8422 7.83549C22.8339 7.10806 22.5469 6.41137 22.0402 5.88926C21.5335 5.36716 20.846 5.05915 20.119 5.02897C19.2605 4.99973 18.436 5.36491 17.8806 6.02029C17.325 6.67543 17.1 7.54886 17.2692 8.3908C17.4386 9.23297 17.984 9.95132 18.7496 10.341V20.389L20.4359 21.2528Z" fill="#143DA7"/>
<path d="M21.3096 33.6368V29.4767L18.7496 28.1359L18.7498 33.6368C18.7498 34.0939 18.9938 34.5167 19.3897 34.7452C19.7857 34.9738 20.2737 34.9738 20.6696 34.7452C21.0656 34.5167 21.3095 34.0939 21.3095 33.6368H21.3096Z" fill="#143DA7"/>
<defs>
<filter id="filter0_f_2_99" x="1.40002" y="2.02866" width="37.2516" height="35.8893" filterUnits="userSpaceOnUse" color-interpolation-filters="sRGB">
<feFlood flood-opacity="0" result="BackgroundImageFix"/>
<feBlend mode="normal" in="SourceGraphic" in2="BackgroundImageFix" result="shape"/>
<feGaussianBlur stdDeviation="1.5" result="effect1_foregroundBlur_2_99"/>
</filter>
</defs>
</svg>
