<svg width="24" height="24" viewBox="0 0 24 24" fill="none" xmlns="http://www.w3.org/2000/svg">
<path fill-rule="evenodd" clip-rule="evenodd" d="M19.0521 9.60158C18.9833 9.03144 18.8499 8.47121 18.6546 7.9312L15.9871 8.89618C16.1094 9.23422 16.1928 9.58471 16.236 9.94149L19.0521 9.60158Z" fill="white"/>
<path fill-rule="evenodd" clip-rule="evenodd" d="M18.3352 7.17827C18.1326 6.76389 17.8923 6.36896 17.6178 5.99822L15.3384 7.68638C15.51 7.91821 15.6604 8.1657 15.7874 8.42486L18.3352 7.17827Z" fill="white"/>
<path fill-rule="evenodd" clip-rule="evenodd" d="M18.8601 12.4284C19.0239 11.8022 19.1068 11.1575 19.1068 10.5102H16.2704C16.2704 10.9154 16.2184 11.3187 16.1161 11.7107L18.8601 12.4284Z" fill="white"/>
<path fill-rule="evenodd" clip-rule="evenodd" d="M16.8863 15.8711C17.6265 15.1311 18.2052 14.2457 18.5864 13.2708L15.9447 12.238C15.706 12.848 15.3439 13.4021 14.8806 13.8652L16.8863 15.8711Z" fill="white"/>
<path fill-rule="evenodd" clip-rule="evenodd" d="M12.425 18.0379C13.7119 17.8842 14.9377 17.403 15.9859 16.6405L14.3169 14.347C13.6611 14.824 12.8941 15.1252 12.0885 15.2215L12.425 18.0379Z" fill="white"/>
<path fill-rule="evenodd" clip-rule="evenodd" d="M7.30548 16.8085C8.55396 17.6449 10.0226 18.0915 11.5254 18.0915V15.2549C10.5848 15.2549 9.6655 14.9755 8.8843 14.452L7.30548 16.8085Z" fill="white"/>
<path fill-rule="evenodd" clip-rule="evenodd" d="M3.99966 11.4283C4.22279 13.2573 5.10459 14.9426 6.47989 16.169L8.36763 14.0519C7.50675 13.2843 6.95482 12.2298 6.81541 11.0848L3.99966 11.4283Z" fill="white"/>
</svg>
