<svg width="24" height="24" viewBox="0 0 24 24" fill="none" xmlns="http://www.w3.org/2000/svg">
<path fill-rule="evenodd" clip-rule="evenodd" d="M14.3984 19.0521C14.9685 18.9833 15.5288 18.8499 16.0688 18.6546L15.1038 15.9871C14.7658 16.1094 14.4153 16.1928 14.0585 16.236L14.3984 19.0521Z" fill="white"/>
<path fill-rule="evenodd" clip-rule="evenodd" d="M16.8217 18.3352C17.2361 18.1326 17.631 17.8923 18.0018 17.6178L16.3136 15.3384C16.0818 15.51 15.8343 15.6604 15.5751 15.7874L16.8217 18.3352Z" fill="white"/>
<path fill-rule="evenodd" clip-rule="evenodd" d="M11.5716 18.8601C12.1978 19.0239 12.8425 19.1068 13.4898 19.1068V16.2704C13.0846 16.2704 12.6813 16.2184 12.2893 16.1161L11.5716 18.8601Z" fill="white"/>
<path fill-rule="evenodd" clip-rule="evenodd" d="M8.12894 16.8863C8.86889 17.6265 9.75429 18.2052 10.7292 18.5864L11.762 15.9447C11.152 15.706 10.5979 15.3439 10.1348 14.8806L8.12894 16.8863Z" fill="white"/>
<path fill-rule="evenodd" clip-rule="evenodd" d="M5.96206 12.425C6.11581 13.7119 6.59703 14.9377 7.35947 15.9859L9.65302 14.3169C9.17596 13.6611 8.87476 12.8941 8.77846 12.0885L5.96206 12.425Z" fill="white"/>
<path fill-rule="evenodd" clip-rule="evenodd" d="M7.19153 7.30548C6.35512 8.55396 5.90848 10.0226 5.90848 11.5254H8.74509C8.74509 10.5848 9.02447 9.6655 9.548 8.8843L7.19153 7.30548Z" fill="white"/>
<path fill-rule="evenodd" clip-rule="evenodd" d="M12.5717 3.99966C10.7427 4.22279 9.05737 5.10459 7.83097 6.47989L9.94811 8.36763C10.7157 7.50675 11.7702 6.95482 12.9152 6.81541L12.5717 3.99966Z" fill="white"/>
</svg>
