<svg width="24" height="24" viewBox="0 0 24 24" fill="none" xmlns="http://www.w3.org/2000/svg">
<path fill-rule="evenodd" clip-rule="evenodd" d="M4.94785 14.3984C5.01669 14.9686 5.15008 15.5288 5.34536 16.0688L8.01285 15.1038C7.89057 14.7658 7.80713 14.4153 7.76401 14.0585L4.94785 14.3984Z" fill="white"/>
<path fill-rule="evenodd" clip-rule="evenodd" d="M5.66475 16.8217C5.86739 17.2361 6.10766 17.631 6.38222 18.0018L8.66153 16.3136C8.48997 16.0818 8.33957 15.8343 8.21259 15.5751L5.66475 16.8217Z" fill="white"/>
<path fill-rule="evenodd" clip-rule="evenodd" d="M5.13983 11.5716C4.97604 12.1978 4.89314 12.8425 4.89314 13.4898H7.72959C7.72959 13.0846 7.78156 12.6813 7.88388 12.2893L5.13983 11.5716Z" fill="white"/>
<path fill-rule="evenodd" clip-rule="evenodd" d="M7.11366 8.12893C6.37343 8.86888 5.79473 9.75428 5.41358 10.7292L8.05531 11.762C8.29396 11.152 8.65609 10.5979 9.11935 10.1348L7.11366 8.12893Z" fill="white"/>
<path fill-rule="evenodd" clip-rule="evenodd" d="M11.5749 5.96207C10.288 6.11582 9.06231 6.59704 8.01404 7.35949L9.68305 9.65303C10.3389 9.17598 11.1059 8.87478 11.9115 8.77847L11.5749 5.96207Z" fill="white"/>
<path fill-rule="evenodd" clip-rule="evenodd" d="M16.6945 7.19154C15.446 6.35513 13.9773 5.90849 12.4746 5.90849V8.74511C13.4152 8.74511 14.3345 9.02448 15.1157 9.54802L16.6945 7.19154Z" fill="white"/>
<path fill-rule="evenodd" clip-rule="evenodd" d="M20.0003 12.5717C19.7772 10.7427 18.8954 9.05739 17.5201 7.83099L15.6323 9.94813C16.4932 10.7157 17.0452 11.7702 17.1846 12.9152L20.0003 12.5717Z" fill="white"/>
</svg>
