<svg width="24" height="24" viewBox="0 0 24 24" fill="none" xmlns="http://www.w3.org/2000/svg">
<path fill-rule="evenodd" clip-rule="evenodd" d="M9.60159 4.94788C9.03145 5.01672 8.47122 5.15011 7.93121 5.34539L8.89619 8.01288C9.23423 7.8906 9.58472 7.80716 9.9415 7.76404L9.60159 4.94788Z" fill="white"/>
<path fill-rule="evenodd" clip-rule="evenodd" d="M7.17828 5.66478C6.7639 5.86742 6.36896 6.10769 5.99823 6.38225L7.68639 8.66156C7.91822 8.49 8.1657 8.3396 8.42487 8.21262L7.17828 5.66478Z" fill="white"/>
<path fill-rule="evenodd" clip-rule="evenodd" d="M12.4284 5.13986C11.8022 4.97607 11.1575 4.89317 10.5102 4.89317V7.72963C10.9154 7.72963 11.3187 7.78159 11.7107 7.88391L12.4284 5.13986Z" fill="white"/>
<path fill-rule="evenodd" clip-rule="evenodd" d="M15.8711 7.11369C15.1311 6.37346 14.2457 5.79476 13.2708 5.41361L12.238 8.05534C12.848 8.29399 13.4021 8.65612 13.8652 9.11938L15.8711 7.11369Z" fill="white"/>
<path fill-rule="evenodd" clip-rule="evenodd" d="M18.0379 11.575C17.8842 10.2881 17.403 9.06235 16.6405 8.01407L14.347 9.68308C14.824 10.3389 15.1252 11.1059 15.2215 11.9115L18.0379 11.575Z" fill="white"/>
<path fill-rule="evenodd" clip-rule="evenodd" d="M16.8084 16.6945C17.6448 15.446 18.0915 13.9774 18.0915 12.4746H15.2549C15.2549 13.4152 14.9755 14.3345 14.452 15.1157L16.8084 16.6945Z" fill="white"/>
<path fill-rule="evenodd" clip-rule="evenodd" d="M11.4283 20.0003C13.2573 19.7772 14.9426 18.8954 16.169 17.5201L14.0519 15.6324C13.2843 16.4933 12.2298 17.0452 11.0848 17.1846L11.4283 20.0003Z" fill="white"/>
</svg>
